<?xml version="1.0" standalone="no"?>
<!DOCTYPE svg PUBLIC "-//W3C//DTD SVG 20010904//EN"
 "http://www.w3.org/TR/2001/REC-SVG-20010904/DTD/svg10.dtd">
<svg version="1.0" xmlns="http://www.w3.org/2000/svg"
 width="113.000000pt" height="214.000000pt" viewBox="0 0 113.000000 214.000000"
 preserveAspectRatio="xMidYMid meet">

<g transform="translate(0.000000,214.000000) scale(0.100000,-0.100000)"
fill="#fff" stroke="none">
<path d="M387 2134 c-4 -4 -7 -16 -7 -26 0 -17 12 -18 186 -18 l185 0 -3 23
c-3 22 -5 22 -179 25 -96 1 -178 -1 -182 -4z"/>
<path d="M280 2055 c-62 -20 -113 -65 -144 -127 -22 -43 -26 -66 -26 -132 1
-122 42 -199 135 -249 38 -21 52 -22 320 -22 l280 0 47 28 c89 52 133 145 126
261 -5 81 -29 135 -80 182 -71 68 -77 69 -358 71 -199 2 -265 -1 -300 -12z
m540 -150 c70 -36 84 -143 26 -201 l-34 -34 -247 0 -247 0 -33 33 c-19 19 -37
47 -41 62 -11 43 15 105 55 132 33 22 41 23 263 23 185 0 235 -3 258 -15z"/>
<path d="M357 1839 c-32 -25 -35 -61 -7 -89 39 -39 100 -12 100 44 0 55 -50
79 -93 45z m63 -24 c0 -8 -7 -15 -15 -15 -16 0 -20 12 -8 23 11 12 23 8 23 -8z"/>
<path d="M695 1836 c-14 -14 -25 -31 -25 -39 0 -25 41 -67 65 -67 24 0 65 41
65 65 0 19 -32 52 -57 60 -17 4 -30 -1 -48 -19z m70 -15 c7 -12 -12 -24 -25
-16 -11 7 -4 25 10 25 5 0 11 -4 15 -9z"/>
<path d="M440 1480 c0 -19 7 -20 125 -20 118 0 125 1 125 20 0 19 -7 20 -125
20 -118 0 -125 -1 -125 -20z"/>
<path d="M266 1409 l-26 -31 0 -266 c0 -377 -13 -362 325 -362 332 0 319 -13
323 319 4 270 0 314 -33 347 l-24 24 -270 0 -269 0 -26 -31z m512 -213 c2 -71
-1 -113 -9 -122 -18 -22 -391 -20 -413 2 -20 20 -23 203 -4 222 9 9 66 12 218
10 l205 -3 3 -109z m-354 -249 c21 -16 24 -60 6 -82 -28 -33 -90 -7 -90 37 0
26 27 58 50 58 9 0 24 -6 34 -13z m176 -7 c24 -24 25 -38 4 -68 -18 -26 -50
-28 -76 -5 -25 22 -23 59 4 77 30 21 44 20 68 -4z m170 0 c11 -11 20 -28 20
-37 0 -23 -30 -53 -53 -53 -26 0 -57 28 -57 52 0 22 34 58 55 58 8 0 24 -9 35
-20z"/>
<path d="M171 1331 c-76 -78 -119 -201 -130 -379 -3 -57 -4 -105 -2 -108 2 -2
21 -4 42 -4 l37 0 7 68 c11 125 28 196 62 261 30 59 34 72 31 136 l-3 70 -44
-44z"/>
<path d="M910 1299 c0 -64 4 -83 29 -130 34 -63 61 -182 61 -269 l0 -60 47 0
46 0 -6 103 c-11 180 -58 316 -136 392 l-41 39 0 -75z"/>
<path d="M6 796 c-12 -47 0 -56 76 -56 l69 0 -3 38 -3 37 -66 3 c-64 3 -67 2
-73 -22z"/>
<path d="M974 795 c-12 -47 -1 -55 76 -55 l71 0 -3 38 -3 37 -67 3 c-65 3 -68
2 -74 -23z"/>
<path d="M303 640 l-20 -91 70 3 69 3 29 80 c16 44 29 83 29 88 0 4 -35 7 -78
7 l-79 0 -20 -90z"/>
<path d="M673 640 l32 -90 68 0 c77 0 73 -6 49 100 l-18 75 -81 3 -81 3 31
-91z"/>
<path d="M24 704 c3 -9 6 -18 6 -20 0 -2 5 -4 10 -4 6 0 10 9 10 20 0 12 -7
20 -16 20 -11 0 -14 -5 -10 -16z"/>
<path d="M107 706 c-6 -14 0 -26 14 -26 3 0 9 9 12 20 6 23 -18 28 -26 6z"/>
<path d="M990 713 c0 -5 4 -14 9 -22 11 -17 32 -5 24 14 -5 15 -33 21 -33 8z"/>
<path d="M1080 700 c0 -24 15 -27 24 -4 9 22 8 24 -9 24 -8 0 -15 -9 -15 -20z"/>
<path d="M265 521 c-6 -10 -35 -302 -35 -355 0 -25 3 -27 23 -21 52 16 114 16
157 1 24 -8 46 -13 48 -11 10 9 -30 380 -41 387 -17 11 -145 10 -152 -1z"/>
<path d="M704 518 c-5 -7 -15 -97 -24 -201 l-16 -188 21 6 c78 25 107 28 157
17 28 -7 53 -11 54 -9 9 9 -30 373 -40 379 -19 13 -144 9 -152 -4z"/>
<path d="M254 121 c-45 -20 -84 -63 -84 -92 0 -18 11 -19 160 -19 160 0 160 0
160 23 0 34 -28 67 -74 88 -52 24 -110 24 -162 0z"/>
<path d="M725 129 c-39 -11 -81 -56 -87 -91 l-5 -28 163 0 c180 0 179 0 144
58 -36 59 -131 86 -215 61z"/>
</g>
</svg>
