<svg width="400" height="151" viewBox="0 0 400 151" fill="none" xmlns="http://www.w3.org/2000/svg">
<g clip-path="url(#clip0_2_19)">
<path d="M189.191 83.431C189.439 82.7469 189.705 82.033 189.785 81.8439L189.917 81.4947L190.412 81.4831C190.68 81.4751 191.138 81.4368 191.431 81.3997C191.725 81.3549 192 81.3476 192.037 81.3743C192.074 81.4089 192.451 82.03 192.864 82.772C193.286 83.5069 193.654 84.1429 193.682 84.1768C193.717 84.2269 195.799 83.5542 195.918 83.4548C195.934 83.4484 195.812 82.6927 195.648 81.7843C195.493 80.8689 195.37 80.121 195.386 80.1146C195.602 79.9844 196.501 79.3886 196.777 79.1854L197.154 78.9125L198.593 79.7677L200.032 80.6229L200.775 79.7469C201.186 79.2652 201.52 78.8475 201.523 78.8163C201.526 78.7852 201.044 78.1941 200.462 77.4923L199.397 76.2227L199.708 75.6226C199.886 75.2931 200.081 74.8631 200.153 74.6655C200.307 74.2477 200.203 74.2699 201.997 74.2936C202.577 74.2972 203.204 74.2972 203.378 74.2889L203.7 74.2779L203.899 73.166C204.008 72.5482 204.086 72.0216 204.057 71.9956C204.035 71.9702 203.353 71.6988 202.54 71.4002C201.727 71.1017 201.021 70.836 200.977 70.8008C200.933 70.7655 200.908 70.6065 200.922 70.4508C200.935 70.2952 200.904 69.8454 200.86 69.4495C200.816 69.0613 200.791 68.7141 200.81 68.6843C200.836 68.6552 201.481 68.2725 202.248 67.8378C203.023 67.4037 203.654 67.0118 203.657 66.9729C203.665 66.8873 202.979 64.953 202.916 64.869C202.873 64.8182 200.489 65.1743 199.753 65.3452C199.617 65.3725 199.523 65.278 199.198 64.7791C198.992 64.4473 198.72 64.0628 198.599 63.9267C198.478 63.7828 198.38 63.6487 198.383 63.6176C198.385 63.5865 198.766 62.9139 199.218 62.1301C199.68 61.3392 200.051 60.6815 200.036 60.6724C199.857 60.4841 198.32 59.2282 198.257 59.2228C198.211 59.2187 197.612 59.6918 196.918 60.2741L195.657 61.3323L195.276 61.1186C195.066 61.0061 194.652 60.813 194.365 60.686C194.07 60.566 193.815 60.4339 193.778 60.4072C193.749 60.3733 193.736 59.6271 193.743 58.7415C193.749 57.8638 193.736 57.1176 193.708 57.0837C193.687 57.0505 193.164 56.9342 192.554 56.8259C191.651 56.6607 191.441 56.6345 191.403 56.7174C191.375 56.7698 191.109 57.4759 190.811 58.2811L190.276 59.74L190.006 59.7713C189.856 59.7895 189.373 59.8336 188.923 59.8726L188.116 59.9511L187.279 58.4898C186.477 57.0863 186.442 57.0362 186.248 57.1055C186.135 57.1427 185.641 57.319 185.139 57.5025L184.231 57.831L184.493 59.3282C184.633 60.1482 184.763 60.8968 184.778 60.9922C184.798 61.1273 184.72 61.2145 184.365 61.4187C184.125 61.5624 183.732 61.8417 183.487 62.0321L183.049 62.3781L181.587 61.5286C180.789 61.0588 180.115 60.6862 180.098 60.7004C179.979 60.8154 178.717 62.3284 178.687 62.3964C178.667 62.4495 179.122 63.0775 179.694 63.7942C180.629 64.9503 180.739 65.1168 180.649 65.2501C180.595 65.3317 180.394 65.7532 180.191 66.1903L179.831 66.9823L178.866 66.9841C178.332 66.9923 177.572 66.9885 177.18 66.9856L176.467 66.9781L176.291 67.9117C176.199 68.429 176.113 68.9627 176.102 69.0872L176.082 69.3207L177.64 69.8883C178.985 70.3746 179.204 70.4722 179.215 70.6143C179.223 70.7013 179.257 71.1277 179.282 71.5612C179.314 71.9954 179.349 72.4062 179.375 72.4712C179.398 72.5595 178.999 72.8226 177.926 73.4345L176.449 74.2699L176.84 75.355C177.079 76.0269 177.271 76.4357 177.34 76.4497C177.403 76.4551 178.126 76.3381 178.946 76.1981C180.468 75.9312 180.681 75.9107 180.672 76.0196C180.668 76.0585 180.917 76.4488 181.222 76.8991L181.787 77.7092L180.993 79.0671C180.552 79.8127 180.173 80.4618 180.146 80.5065C180.126 80.5596 180.508 80.9381 181.005 81.3502L181.896 82.1026L183.182 81.0309L184.469 79.9514L185.137 80.2922C185.497 80.4728 185.942 80.6764 186.109 80.7381C186.474 80.8719 186.449 80.7129 186.423 82.9848L186.409 84.2149L186.724 84.2895C187.032 84.3557 188.583 84.6482 188.692 84.6577C188.715 84.6598 188.944 84.1073 189.191 83.431ZM188.124 78.6871C185.129 77.9623 182.755 75.5981 182.028 72.6171C181.814 71.7436 181.749 70.8752 181.834 69.9024C182.002 67.9878 182.761 66.3054 184.072 64.9379C185.341 63.6137 186.904 62.7781 188.728 62.4592C189.636 62.2956 191.462 62.4004 192.349 62.6662C195.429 63.5788 197.675 66.0574 198.248 69.1896C198.441 70.2103 198.371 71.8197 198.097 72.7995C197.608 74.5291 196.668 75.9526 195.259 77.0919C193.234 78.7263 190.65 79.308 188.124 78.6871Z" fill="black"/>
<path d="M236.076 80.4356C236.106 80.3598 236.469 79.4348 236.891 78.3738C237.305 77.3199 237.648 76.448 237.649 76.4325C237.65 76.4247 237.91 76.416 238.216 76.4114C238.53 76.4076 239.177 76.3622 239.661 76.3026C240.136 76.2423 240.532 76.1985 240.539 76.2069C240.547 76.2076 241.016 77.0329 241.588 78.0318C242.151 79.03 242.641 79.8807 242.67 79.9145C242.712 79.9653 245.522 79.0426 245.657 78.9368C245.675 78.9148 245.533 77.9378 245.347 76.7452C245.047 74.8838 245.019 74.5755 245.125 74.5299C245.345 74.4315 246.242 73.8591 246.703 73.523C246.947 73.3404 247.206 73.1513 247.281 73.103C247.397 73.0269 247.684 73.1617 249.297 74.0793C250.328 74.6636 251.204 75.148 251.243 75.1514C251.297 75.1561 253.032 73.2532 253.273 72.9214C253.318 72.8548 252.902 72.3165 251.92 71.1718L250.505 69.5109L250.811 68.973C250.978 68.674 251.262 68.1107 251.438 67.7182C251.613 67.3258 251.76 66.9936 251.769 66.9787C251.786 66.9645 252.791 66.9582 254.014 66.9555C255.238 66.9528 256.268 66.9252 256.293 66.9039C256.345 66.8535 256.959 63.9585 256.922 63.924C256.907 63.9148 255.956 63.5807 254.808 63.1743L252.715 62.4423L252.711 61.8616C252.704 61.3198 252.611 60.2295 252.542 59.847C252.516 59.6958 252.758 59.5365 254.439 58.6092C255.494 58.0192 256.393 57.5175 256.427 57.4891C256.485 57.4472 255.61 54.814 255.483 54.6461C255.463 54.6129 254.438 54.7585 253.212 54.9728C251.993 55.1877 250.99 55.3587 250.984 55.3425C250.883 55.1455 250.03 53.871 249.763 53.5182L249.405 53.0399L250.572 51.1736L251.748 49.3001L251.523 49.0922C251.399 48.9795 250.866 48.5251 250.339 48.0947L249.381 47.3051L247.636 48.6973C246.682 49.4687 245.836 50.0848 245.766 50.0787C245.697 50.0648 245.388 49.9201 245.081 49.7521C244.774 49.5919 244.246 49.3496 243.912 49.2185L243.305 48.985L243.293 48.5918C243.28 48.3789 243.301 47.424 243.329 46.4775C243.357 45.5233 243.358 44.7077 243.331 44.6583C243.285 44.5601 240.36 44.0219 240.275 44.0929C240.25 44.1142 240.009 44.7127 239.728 45.4097C238.668 48.1166 238.641 48.1613 238.45 48.1838C238.356 48.1912 237.961 48.2195 237.583 48.2335C237.197 48.2546 236.636 48.3074 236.333 48.3594L235.777 48.444L235.313 47.6506C235.061 47.2129 234.571 46.3622 234.224 45.7594C233.707 44.8593 233.567 44.6667 233.439 44.6947C233.239 44.7399 230.688 45.654 230.63 45.6959C230.604 45.7172 230.74 46.678 230.93 47.8239C231.111 48.9769 231.262 49.939 231.26 49.9624C231.258 49.9935 230.965 50.1954 230.61 50.4074C230.261 50.6278 229.727 50.989 229.426 51.2135L228.881 51.6128L228.133 51.1945C227.722 50.9625 226.856 50.4633 226.206 50.0927L225.026 49.417L223.983 50.5883L222.938 51.7674L224.351 53.4595L225.771 55.16L225.413 55.756C225.219 56.0842 224.944 56.6326 224.796 56.9804C224.649 57.3204 224.505 57.6215 224.472 57.6343C224.44 57.6472 223.418 57.6676 222.195 57.6703C220.971 57.6731 219.958 57.6864 219.95 57.6935C219.932 57.7155 219.408 60.3909 219.394 60.5544C219.382 60.6867 219.655 60.7968 221.473 61.4421L223.564 62.1819L223.588 62.9917C223.596 63.4394 223.644 64.0553 223.681 64.3487C223.725 64.6506 223.757 64.9122 223.755 64.9355C223.754 64.9511 222.862 65.4613 221.774 66.0641C220.687 66.6591 219.796 67.1615 219.794 67.177C219.794 67.1848 220.019 67.8319 220.297 68.609C220.692 69.7337 220.825 70.012 220.935 70.0059C221.014 69.9972 222.025 69.8268 223.179 69.6298C224.335 69.425 225.281 69.2726 225.295 69.2895C225.31 69.3064 225.453 69.5464 225.625 69.8281C225.797 70.1019 226.153 70.6036 226.414 70.9323L226.887 71.5383L225.729 73.382C225.099 74.4012 224.576 75.2652 224.572 75.3119C224.566 75.3897 226.779 77.246 226.896 77.2562C226.958 77.2616 228.078 76.3871 229.994 74.8373L230.432 74.4913L231.229 74.8826C231.665 75.1011 232.246 75.3559 232.512 75.4498L232.999 75.6256L233 76.0649C233.01 76.3011 232.989 77.2638 232.955 78.1941C232.927 79.1328 232.92 79.932 232.948 79.9737C232.967 80.0224 233.629 80.1666 234.41 80.2976C236.148 80.5987 236.015 80.5949 236.076 80.4356ZM234.526 72.6066C230.356 71.2302 227.577 67.9442 227.064 63.7742C226.93 62.7038 227.066 60.8806 227.361 59.8398C228.608 55.3611 232.501 52.0943 237.197 51.5797C240.807 51.1897 244.442 52.5821 246.734 55.2452C247.545 56.1867 248.112 57.146 248.573 58.3313C249.001 59.4432 249.191 60.3302 249.26 61.5126C249.461 64.8554 247.953 68.2054 245.222 70.4682C243.48 71.9078 241.162 72.8578 238.844 73.0864C237.911 73.1694 235.41 72.8957 234.526 72.6066Z" fill="black"/>
<path d="M207.965 66.0479C208.274 65.2045 208.569 64.5167 208.644 64.4683C208.719 64.42 208.902 64.3889 209.05 64.4019C209.206 64.4155 209.639 64.3907 210.027 64.3462L210.717 64.2654L211.537 65.7331C211.991 66.5492 212.405 67.1971 212.453 67.1856C212.502 67.1664 213.004 66.9907 213.577 66.7978C214.484 66.4771 214.607 66.4173 214.572 66.2731C214.556 66.1854 214.426 65.4368 214.294 64.6097L214.049 63.1061L214.513 62.8251C214.778 62.6679 215.162 62.3957 215.381 62.2266L215.785 61.9091L216.249 62.1692C216.511 62.3098 217.144 62.6868 217.665 63.0068C218.186 63.3269 218.649 63.5948 218.688 63.5982C218.727 63.6016 219.099 63.2028 219.518 62.7219L220.277 61.8394L219.198 60.5451L218.119 59.2586L218.38 58.7796C218.513 58.5167 218.732 58.081 218.849 57.809C219.045 57.3634 219.088 57.3201 219.293 57.3145C219.418 57.3176 220.162 57.3278 220.945 57.3414C221.737 57.3479 222.396 57.3429 222.413 57.3287C222.447 57.3002 222.892 55.0806 222.863 55.0467C222.856 55.0383 222.151 54.7648 221.285 54.4459L219.72 53.862L219.711 53.3436C219.712 53.0614 219.674 52.6032 219.635 52.3253C219.597 52.0475 219.572 51.7944 219.574 51.7632C219.577 51.7321 220.231 51.3423 221.022 50.9018C221.814 50.4613 222.468 50.0636 222.471 50.0325C222.476 49.9702 221.797 47.9581 221.742 47.8748C221.736 47.8586 221.005 47.9594 220.13 48.1024C219.262 48.2539 218.515 48.3689 218.476 48.3655C218.437 48.3621 218.268 48.1434 218.102 47.8858C217.937 47.6204 217.666 47.228 217.504 47.0178L217.2 46.6305L218.065 45.1691L218.93 43.7155L218.083 42.9905C217.624 42.5896 217.208 42.2395 217.17 42.2205C217.133 42.2016 216.528 42.6662 215.817 43.255L214.539 44.3273L214.203 44.1411C214.016 44.0306 213.595 43.8213 213.264 43.6668C212.894 43.5011 212.65 43.3386 212.618 43.2496C212.602 43.1697 212.598 42.4086 212.617 41.5633C212.636 40.7102 212.635 40.0121 212.611 40.0101C212.588 40.008 212.11 39.9113 211.563 39.8007C211.008 39.6894 210.507 39.5907 210.437 39.5846C210.351 39.5771 210.187 39.9313 209.769 41.0397C209.471 41.8371 209.189 42.5574 209.143 42.6318C209.089 42.7134 208.968 42.7498 208.774 42.7328C208.618 42.7192 208.145 42.7484 207.733 42.7908C207.321 42.841 206.982 42.8662 206.975 42.8578C206.975 42.8578 206.616 42.2068 206.175 41.4232C205.734 40.6318 205.391 39.9822 205.408 39.968C205.425 39.9538 205.912 40.2082 206.495 40.5415C207.086 40.8677 207.572 41.1377 207.588 41.139C207.642 41.1438 209.049 39.4004 209.056 39.3304C209.058 39.2993 208.576 38.7159 207.984 38.0446C207.235 37.187 206.926 36.7835 206.964 36.7006C206.994 36.6326 207.19 36.187 207.404 35.7117C207.695 35.0706 207.833 34.8396 207.935 34.8328C208.014 34.8319 208.76 34.8187 209.592 34.8131C210.432 34.8003 211.124 34.7824 211.141 34.7682C211.192 34.7256 211.548 32.5374 211.512 32.4951C211.491 32.4697 210.785 32.204 209.932 31.9098L208.396 31.3598L208.298 30.418C208.25 29.8961 208.19 29.4125 208.172 29.3482C208.149 29.2599 208.541 28.9884 209.582 28.3815C210.376 27.9176 211.031 27.5045 211.034 27.4733C211.037 27.4422 210.874 26.9731 210.661 26.4447C210.457 25.9093 210.279 25.431 210.268 25.383C210.249 25.3265 209.638 25.4141 208.57 25.6108C207.652 25.7894 206.895 25.927 206.896 25.9193C206.886 25.8478 206.28 24.9792 206.004 24.6413L205.658 24.2033L206.493 22.7236L207.328 21.2438L206.443 20.5155C205.953 20.1119 205.535 19.7851 205.504 19.7824C205.472 19.7796 204.889 20.2619 204.202 20.8605C203.006 21.8852 202.947 21.9349 202.751 21.8394C202.646 21.7831 202.216 21.5887 201.801 21.4111C201.385 21.2336 201.038 21.0778 201.023 21.0686C201.008 21.0595 200.988 20.297 200.975 19.3705L200.949 17.6978L200.447 17.6068C200.17 17.5512 199.652 17.4667 199.289 17.4035L198.632 17.2912L198.329 18.1509C198.17 18.6232 197.912 19.3378 197.774 19.7492L197.506 20.4786L196.891 20.5189C196.552 20.5363 196.086 20.5818 195.854 20.6243C195.624 20.659 195.411 20.6718 195.381 20.6535C195.359 20.6359 194.954 19.9808 194.496 19.2036C194.038 18.4342 193.638 17.811 193.606 17.8161C192.938 18.0164 191.498 18.6119 191.491 18.6819C191.486 18.7442 191.617 19.4928 191.784 20.3545C191.944 21.2154 192.07 21.9244 192.053 21.9386C192.037 21.9451 191.804 22.105 191.529 22.2849C191.255 22.4648 190.869 22.7447 190.676 22.8925L190.33 23.1759L188.917 22.3779C188.148 21.942 187.474 21.5772 187.435 21.5738C187.388 21.5697 187.016 21.9685 186.612 22.4586L185.876 23.3509L186.987 24.6323L188.099 25.9059L187.875 26.3177C187.753 26.5423 187.559 26.9723 187.439 27.2599C187.327 27.5559 187.211 27.8046 187.194 27.8188C187.177 27.833 186.415 27.8525 185.496 27.8663L183.824 27.8847L183.64 29.0057C183.539 29.6242 183.469 30.1514 183.498 30.1852C183.519 30.2106 184.225 30.4763 185.054 30.7685C185.891 31.0613 186.582 31.3178 186.597 31.3347C186.611 31.3517 186.637 31.5892 186.652 31.865C186.675 32.1415 186.72 32.616 186.765 32.9101C186.81 33.2041 186.834 33.4573 186.817 33.4715C186.801 33.4779 186.148 33.8677 185.363 34.3245L183.941 35.1569L184.084 35.5772C184.499 36.7585 184.731 37.3278 184.808 37.3424C184.855 37.3464 185.604 37.2159 186.481 37.0495L188.067 36.757L188.192 36.9482C188.261 37.0562 188.533 37.433 188.784 37.7922C189.043 38.152 189.258 38.4766 189.271 38.5091C189.276 38.541 188.928 39.2006 188.492 39.9703C188.056 40.7399 187.7 41.3989 187.698 41.4222C187.703 41.4541 188.104 41.8028 188.594 42.2064L189.487 42.9355L190.776 41.8327L192.056 40.7291L192.581 41.0025C192.874 41.1536 193.312 41.3487 193.563 41.4412L194.01 41.6137L194.024 43.2539C194.031 44.1565 194.058 44.9196 194.087 44.9534C194.15 45.0374 196.278 45.3647 196.346 45.3079C196.379 45.2873 196.646 44.5656 196.947 43.7215L197.49 42.177L197.954 42.1627C198.205 42.1611 198.663 42.1228 198.957 42.0779C199.259 42.0337 199.529 42.0024 199.567 42.0058C199.63 42.0113 201.287 44.7599 201.28 44.8455C201.278 44.8689 200.769 44.5813 200.151 44.2057C199.533 43.8301 199.019 43.5263 199.003 43.5249C198.995 43.5242 198.64 43.9166 198.221 44.3976L197.462 45.2723L198.515 46.5956L199.568 47.9112L199.219 48.5942C199.029 48.9697 198.835 49.392 198.792 49.5293C198.748 49.6745 198.674 49.7936 198.626 49.805C198.57 49.8236 197.809 49.8198 196.932 49.8136C196.047 49.7989 195.317 49.8057 195.301 49.8121C195.25 49.8547 194.839 52.0459 194.874 52.0882C194.895 52.1136 195.608 52.3956 196.451 52.7124L197.992 53.2942L197.992 53.5609C197.991 53.8431 198.087 54.9809 198.141 55.2601C198.169 55.3958 197.952 55.5415 196.683 56.2461L195.206 57.0737L195.581 58.1652C195.796 58.7643 196.003 59.2608 196.058 59.2656C196.112 59.2704 196.843 59.1618 197.695 59.0167C198.546 58.8794 199.262 58.7617 199.286 58.7638C199.309 58.7658 199.428 58.933 199.551 59.1399C199.674 59.3467 199.945 59.7468 200.148 60.0234L200.519 60.5342L199.701 61.9057C199.251 62.6584 198.872 63.3153 198.86 63.3613C198.828 63.4527 200.435 64.9029 200.582 64.9158C200.621 64.9192 201.21 64.461 201.887 63.8929C202.565 63.3247 203.161 62.8672 203.216 62.872C203.27 62.8767 203.436 62.954 203.592 63.0539C203.741 63.1453 204.147 63.3455 204.479 63.4922L205.099 63.7582L205.103 64.2448C205.104 64.5037 205.101 65.2563 205.092 65.8985C205.082 66.5486 205.097 67.0988 205.118 67.1242C205.169 67.1757 206.912 67.5086 207.254 67.5385C207.387 67.5501 207.481 67.3624 207.965 66.0479ZM206.71 61.57C203.315 60.669 200.846 57.6848 200.582 54.1639C200.29 50.1545 202.947 46.4893 206.875 45.5233C211.132 44.4606 215.494 46.9518 216.803 51.1757C217.302 52.8192 217.245 54.814 216.648 56.44C216.393 57.1157 215.771 58.2141 215.296 58.8078C214.264 60.1134 212.439 61.2556 210.765 61.6503C209.548 61.9359 207.943 61.9053 206.71 61.57ZM201.568 45.0433L201.346 44.8984L202.425 44.483C203.018 44.2526 203.513 44.0528 203.522 44.0457C203.53 44.0386 203.399 43.2978 203.228 42.3888L202.917 40.7383L203.55 40.323C203.899 40.0948 204.292 39.8155 204.428 39.6941L204.666 39.4797L204.994 39.6809C205.173 39.7828 205.321 39.8898 205.319 39.9132C205.316 39.9443 204.821 40.1285 204.224 40.3271C203.626 40.5258 203.132 40.7099 203.13 40.7255C203.128 40.7489 203.239 41.4565 203.384 42.3083C203.521 43.1595 203.637 43.8989 203.631 43.9612C203.627 44.0157 203.373 44.2209 203.058 44.413C202.752 44.5979 202.392 44.8566 202.256 44.978C201.968 45.2273 201.881 45.2353 201.568 45.0433ZM194.606 39.1092C193.271 38.5847 192.206 37.8562 191.321 36.8534C189.58 34.8817 188.861 32.3484 189.339 29.8415C189.889 26.9566 191.774 24.6825 194.469 23.64C196.019 23.0463 197.546 22.8975 199.041 23.193C203.695 24.1413 206.637 28.61 205.587 33.1687C204.889 36.221 202.503 38.663 199.507 39.3812C198.409 39.6459 197.953 39.6687 196.57 39.5163C195.459 39.3956 195.197 39.3413 194.606 39.1092Z" fill="black"/>
<path d="M172.473 49.6109L173.029 48.0126L173.629 47.9709C173.96 47.9528 174.435 47.9003 174.697 47.8605C174.951 47.82 175.166 47.7917 175.18 47.8086C175.186 47.8249 175.556 48.4454 175.999 49.1978C176.436 49.9497 176.826 50.5955 176.854 50.6294C176.932 50.7303 179.122 49.8946 179.087 49.766C179.028 49.5412 178.473 46.5597 178.49 46.5455C179.08 46.1657 179.581 45.8175 179.86 45.5909L180.214 45.3082L181.641 46.1153C182.426 46.5526 183.092 46.9167 183.131 46.9201C183.17 46.9235 183.527 46.5234 183.922 46.0404L184.651 45.1474L183.563 43.868L182.483 42.5893L182.646 42.2507C182.741 42.0629 182.927 41.64 183.066 41.3071C183.205 40.9742 183.332 40.6873 183.349 40.6731C183.366 40.6511 184.129 40.6316 185.047 40.6256L186.711 40.6065L186.82 39.9887C186.881 39.649 186.966 39.1231 187.024 38.8223L187.119 38.2738L185.521 37.7184L183.922 37.1629L183.899 36.8001C183.882 36.4614 183.804 35.6468 183.74 35.2099C183.717 35.0275 183.834 34.9436 185.165 34.166C185.958 33.7022 186.605 33.2961 186.593 33.2636C186.379 32.5704 185.797 31.155 185.719 31.1481C185.657 31.1427 184.908 31.2733 184.039 31.4403L182.468 31.7342L182.295 31.4682C182.199 31.3185 181.92 30.9177 181.675 30.5748L181.235 29.9638L182.032 28.5592C182.469 27.7818 182.832 27.1234 182.836 27.0845C182.839 27.0456 182.44 26.6813 181.942 26.277L181.049 25.5479L179.767 26.667C178.535 27.7435 178.477 27.7854 178.306 27.6686C178.21 27.6052 177.774 27.3945 177.336 27.1994L176.543 26.8477L176.527 25.2386C176.518 24.3594 176.49 23.5963 176.463 23.5469C176.429 23.489 176.006 23.3971 175.425 23.3149C174.875 23.2354 174.38 23.1529 174.312 23.1235C174.213 23.0913 174.095 23.3711 173.635 24.6797C173.145 26.072 173.056 26.2838 172.914 26.2949C172.819 26.3023 172.423 26.3383 172.036 26.3749C171.641 26.4109 171.238 26.4463 171.126 26.4679C170.936 26.4904 170.859 26.3818 170.108 25.1083C169.657 24.3474 169.267 23.6937 169.247 23.6528C169.227 23.6118 168.719 23.7713 168.119 24.001C167.299 24.3214 167.036 24.4553 167.043 24.5578C167.052 24.6292 167.19 25.3785 167.353 26.2083L167.636 27.7232L167.37 27.8959C167.228 27.9933 166.836 28.2648 166.501 28.51C166.166 28.7474 165.875 28.9415 165.851 28.9394C165.828 28.9374 165.17 28.5739 164.385 28.1367C163.6 27.6916 162.931 27.3664 162.897 27.3948C162.862 27.431 162.521 27.8325 162.144 28.2935L161.46 29.1198L162.546 30.4148L163.633 31.7097L163.285 32.4557C163.093 32.8624 162.898 33.3001 162.848 33.4213L162.757 33.6486L161.101 33.6684C160.182 33.6821 159.42 33.7017 159.403 33.7159C159.36 33.7592 158.995 35.9623 159.023 35.9961C159.036 36.0208 159.751 36.2794 160.619 36.5827L162.179 37.127L162.22 37.7345C162.237 38.0732 162.289 38.5561 162.33 38.8029C162.371 39.0496 162.375 39.2695 162.342 39.2979C162.308 39.3263 161.679 39.6949 160.952 40.1175C160.225 40.5401 159.597 40.9086 159.563 40.937C159.454 41.0138 160.298 43.205 160.427 43.1692C160.483 43.1506 161.177 43.0153 161.966 42.8726C162.756 42.7221 163.458 42.5874 163.529 42.578C163.617 42.5543 163.719 42.6495 163.826 42.8549C163.921 43.0279 164.2 43.4287 164.439 43.7398L164.875 44.3113L164.077 45.7237C163.64 46.5088 163.276 47.175 163.272 47.2139C163.269 47.2528 163.669 47.6093 164.152 48.0045L165.038 48.7251L166.332 47.6463L167.627 46.5597L167.957 46.7297C168.13 46.8232 168.567 47.0184 168.923 47.1671L169.566 47.4351L169.576 49.1143L169.586 50.7934L170.243 50.9057C170.606 50.9611 171.132 51.0541 171.409 51.1097L171.919 51.2014L172.473 49.6109ZM170.635 45.0818C168.862 44.5503 167.169 43.2807 166.137 41.7239C165.617 40.9412 165.049 39.5505 164.891 38.6584C164.355 35.647 165.447 32.6684 167.804 30.7336C171.285 27.8777 176.49 28.3566 179.366 31.7844C180.857 33.5617 181.485 35.5302 181.3 37.8197C181.132 39.9224 180.334 41.6092 178.805 43.1224C177.475 44.4333 175.372 45.3395 173.427 45.4359C172.694 45.4737 171.392 45.3049 170.635 45.0818Z" fill="black"/>
</g>
<path d="M23.3901 49.95L23.3901 81L18.8901 81L18.8901 49.95L23.3901 49.95ZM33.2901 49.95L33.2901 53.82L9.03506 53.82L9.03506 49.95L33.2901 49.95ZM42.0025 58.5C45.3925 58.5 47.8375 59.115 49.3375 60.345C50.8675 61.545 51.6325 63.33 51.6325 65.7C51.6625 67.68 51.2275 69.21 50.3275 70.29C49.4575 71.37 48.0325 71.91 46.0525 71.91L33.3625 71.91L33.3625 68.805L44.9275 68.805C45.9175 68.805 46.5625 68.49 46.8625 67.86C47.1625 67.23 47.3125 66.51 47.3125 65.7C47.2825 64.35 46.8775 63.39 46.0975 62.82C45.3475 62.25 44.0425 61.965 42.1825 61.965C40.6525 61.965 39.4525 62.19 38.5825 62.64C37.7125 63.09 37.0975 63.87 36.7375 64.98C36.4075 66.09 36.2425 67.65 36.2425 69.66C36.2425 71.91 36.4525 73.635 36.8725 74.835C37.3225 76.005 38.0275 76.815 38.9875 77.265C39.9775 77.715 41.2825 77.94 42.9025 77.94C44.0425 77.94 45.3175 77.895 46.7275 77.805C48.1675 77.685 49.4725 77.55 50.6425 77.4L51.0925 80.235C50.3725 80.535 49.5025 80.79 48.4825 81C47.4625 81.18 46.4125 81.315 45.3325 81.405C44.2525 81.495 43.2625 81.54 42.3625 81.54C39.7825 81.54 37.7125 81.15 36.1525 80.37C34.5925 79.59 33.4525 78.36 32.7325 76.68C32.0125 74.97 31.6525 72.735 31.6525 69.975C31.6525 67.095 32.0125 64.815 32.7325 63.135C33.4525 61.455 34.5775 60.27 36.1075 59.58C37.6375 58.86 39.6025 58.5 42.0025 58.5ZM66.6621 58.5C67.3521 58.5 68.1021 58.53 68.9121 58.59C69.7521 58.65 70.6071 58.755 71.4771 58.905C72.3771 59.055 73.2021 59.28 73.9521 59.58L73.4121 62.37C72.3621 62.28 71.2821 62.22 70.1721 62.19C69.0921 62.13 68.1621 62.1 67.3821 62.1C65.7021 62.1 64.3671 62.34 63.3771 62.82C62.4171 63.27 61.7271 64.065 61.3071 65.205C60.8871 66.345 60.6771 67.935 60.6771 69.975C60.6771 72.015 60.8871 73.62 61.3071 74.79C61.7271 75.96 62.4171 76.77 63.3771 77.22C64.3671 77.67 65.7021 77.895 67.3821 77.895C67.8321 77.895 68.4171 77.88 69.1371 77.85C69.8571 77.82 70.6371 77.775 71.4771 77.715C72.3171 77.655 73.1271 77.565 73.9071 77.445L74.3121 80.325C73.2021 80.745 71.9721 81.045 70.6221 81.225C69.2721 81.435 67.9371 81.54 66.6171 81.54C64.0371 81.54 61.9671 81.165 60.4071 80.415C58.8771 79.665 57.7671 78.45 57.0771 76.77C56.3871 75.09 56.0421 72.825 56.0421 69.975C56.0421 67.155 56.3871 64.905 57.0771 63.225C57.7971 61.545 58.9221 60.345 60.4521 59.625C62.0121 58.875 64.0821 58.5 66.6621 58.5ZM93.0395 58.5C97.0295 58.5 99.0245 60.51 99.0245 64.53L99.0245 81L94.6145 81L94.6145 65.79C94.6145 64.41 94.3895 63.465 93.9395 62.955C93.5195 62.415 92.7695 62.145 91.6895 62.145C90.3995 62.145 89.1095 62.445 87.8195 63.045C86.5295 63.615 84.9845 64.47 83.1845 65.61L82.9595 62.73C84.6395 61.41 86.3195 60.375 87.9995 59.625C89.7095 58.875 91.3895 58.5 93.0395 58.5ZM83.6345 49.5L83.6795 58.005C83.6795 59.025 83.6345 59.985 83.5445 60.885C83.4845 61.785 83.3645 62.58 83.1845 63.27L83.6345 63.9L83.6345 81L79.3145 81L79.3145 49.5L83.6345 49.5ZM110.003 49.5L109.958 74.745C109.958 75.675 110.213 76.38 110.723 76.86C111.263 77.34 111.998 77.58 112.928 77.58L114.998 77.58L115.493 80.775C115.193 80.925 114.773 81.045 114.233 81.135C113.723 81.225 113.183 81.285 112.613 81.315C112.073 81.375 111.608 81.405 111.218 81.405C109.538 81.405 108.188 80.925 107.168 79.965C106.178 79.005 105.683 77.61 105.683 75.78L105.683 49.5L110.003 49.5ZM129.836 58.5C131.516 58.5 132.926 58.725 134.066 59.175C135.236 59.595 136.106 60.33 136.676 61.38C137.276 62.43 137.576 63.87 137.576 65.7L137.576 81L134.156 81L133.481 76.23L133.211 75.69L133.211 65.7C133.211 64.41 132.911 63.48 132.311 62.91C131.711 62.34 130.571 62.055 128.891 62.055C127.751 62.055 126.311 62.115 124.571 62.235C122.861 62.355 121.166 62.475 119.486 62.595L119.081 59.49C120.101 59.31 121.226 59.145 122.456 58.995C123.716 58.845 124.991 58.725 126.281 58.635C127.571 58.545 128.756 58.5 129.836 58.5ZM135.596 67.455L135.551 70.515L125.201 70.56C124.181 70.59 123.461 70.86 123.041 71.37C122.651 71.85 122.456 72.525 122.456 73.395L122.456 74.745C122.456 75.825 122.711 76.62 123.221 77.13C123.761 77.61 124.601 77.85 125.741 77.85C126.581 77.85 127.511 77.7 128.531 77.4C129.581 77.07 130.631 76.59 131.681 75.96C132.731 75.3 133.676 74.475 134.516 73.485L134.516 76.32C134.216 76.74 133.766 77.25 133.166 77.85C132.566 78.42 131.831 78.975 130.961 79.515C130.121 80.055 129.176 80.505 128.126 80.865C127.106 81.225 125.981 81.405 124.751 81.405C123.431 81.405 122.261 81.18 121.241 80.73C120.251 80.25 119.471 79.56 118.901 78.66C118.331 77.73 118.046 76.605 118.046 75.285L118.046 72.9C118.046 71.19 118.586 69.855 119.666 68.895C120.776 67.935 122.306 67.455 124.256 67.455L135.596 67.455ZM156.329 58.5C159.059 58.5 161.069 59.385 162.359 61.155C163.649 62.895 164.294 65.82 164.294 69.93C164.294 71.79 164.129 73.44 163.799 74.88C163.499 76.32 162.974 77.535 162.224 78.525C161.474 79.515 160.454 80.265 159.164 80.775C157.904 81.285 156.299 81.54 154.349 81.54C153.599 81.54 152.774 81.51 151.874 81.45C150.974 81.39 150.059 81.285 149.129 81.135C148.199 81.015 147.299 80.865 146.429 80.685C145.559 80.475 144.764 80.22 144.044 79.92L147.509 77.085C148.289 77.325 149.054 77.52 149.804 77.67C150.584 77.82 151.349 77.925 152.099 77.985C152.879 78.015 153.599 78.03 154.259 78.03C155.609 77.97 156.674 77.7 157.454 77.22C158.264 76.74 158.849 75.915 159.209 74.745C159.599 73.545 159.794 71.94 159.794 69.93C159.794 67.98 159.644 66.45 159.344 65.34C159.074 64.2 158.564 63.39 157.814 62.91C157.094 62.4 156.059 62.145 154.709 62.145C153.569 62.145 152.474 62.46 151.424 63.09C150.404 63.69 149.234 64.5 147.914 65.52L147.599 62.82C148.469 61.89 149.369 61.11 150.299 60.48C151.229 59.82 152.204 59.325 153.224 58.995C154.244 58.665 155.279 58.5 156.329 58.5ZM148.409 49.5L148.409 57.51C148.409 58.44 148.379 59.325 148.319 60.165C148.259 60.975 148.124 61.785 147.914 62.595L148.364 63.225L148.409 80.145L144.044 79.92L144.044 49.5L148.409 49.5Z" fill="black"/>
<path d="M102.715 83.545C105.175 83.545 107.155 83.815 108.655 84.355C110.185 84.865 111.295 85.78 111.985 87.1C112.675 88.39 113.02 90.205 113.02 92.545C113.02 94.195 112.825 95.575 112.435 96.685C112.045 97.795 111.43 98.665 110.59 99.295C109.78 99.925 108.67 100.33 107.26 100.51L107.26 100.735C107.77 100.855 108.28 101.095 108.79 101.455C109.3 101.815 109.78 102.31 110.23 102.94C110.68 103.54 111.01 104.305 111.22 105.235L114.145 115L109.375 115L106.675 105.325C106.315 104.185 105.82 103.375 105.19 102.895C104.56 102.415 103.735 102.175 102.715 102.175C100.825 102.175 99.205 102.175 97.855 102.175C96.505 102.145 95.365 102.115 94.435 102.085C93.535 102.055 92.8 102.04 92.23 102.04L92.365 98.44L102.625 98.44C104.095 98.41 105.25 98.245 106.09 97.945C106.93 97.615 107.53 97.045 107.89 96.235C108.28 95.425 108.475 94.285 108.475 92.815C108.475 91.345 108.28 90.22 107.89 89.44C107.53 88.63 106.93 88.075 106.09 87.775C105.25 87.445 104.095 87.28 102.625 87.28C100.105 87.28 97.93 87.295 96.1 87.325C94.27 87.355 93.04 87.37 92.41 87.37L91.78 83.95C92.92 83.83 94 83.74 95.02 83.68C96.04 83.62 97.15 83.59 98.35 83.59C99.58 83.56 101.035 83.545 102.715 83.545ZM96.235 83.95L96.235 115L91.78 115L91.78 83.95L96.235 83.95ZM128.462 92.5C131.852 92.5 134.297 93.115 135.797 94.345C137.327 95.545 138.092 97.33 138.092 99.7C138.122 101.68 137.687 103.21 136.787 104.29C135.917 105.37 134.492 105.91 132.512 105.91L119.822 105.91L119.822 102.805L131.387 102.805C132.377 102.805 133.022 102.49 133.322 101.86C133.622 101.23 133.772 100.51 133.772 99.7C133.742 98.35 133.337 97.39 132.557 96.82C131.807 96.25 130.502 95.965 128.642 95.965C127.112 95.965 125.912 96.19 125.042 96.64C124.172 97.09 123.557 97.87 123.197 98.98C122.867 100.09 122.702 101.65 122.702 103.66C122.702 105.91 122.912 107.635 123.332 108.835C123.782 110.005 124.487 110.815 125.447 111.265C126.437 111.715 127.742 111.94 129.362 111.94C130.502 111.94 131.777 111.895 133.187 111.805C134.627 111.685 135.932 111.55 137.102 111.4L137.552 114.235C136.832 114.535 135.962 114.79 134.942 115C133.922 115.18 132.872 115.315 131.792 115.405C130.712 115.495 129.722 115.54 128.822 115.54C126.242 115.54 124.172 115.15 122.612 114.37C121.052 113.59 119.912 112.36 119.192 110.68C118.472 108.97 118.112 106.735 118.112 103.975C118.112 101.095 118.472 98.815 119.192 97.135C119.912 95.455 121.037 94.27 122.567 93.58C124.097 92.86 126.062 92.5 128.462 92.5ZM152.492 92.5C154.862 92.5 156.737 92.74 158.117 93.22C159.527 93.67 160.532 94.42 161.132 95.47C161.732 96.49 162.032 97.825 162.032 99.475C162.032 101.065 161.732 102.385 161.132 103.435C160.532 104.455 159.527 105.22 158.117 105.73C156.707 106.21 154.817 106.45 152.447 106.45C150.047 106.45 148.142 106.21 146.732 105.73C145.352 105.22 144.362 104.455 143.762 103.435C143.162 102.415 142.862 101.11 142.862 99.52C142.862 97.84 143.162 96.49 143.762 95.47C144.362 94.42 145.367 93.67 146.777 93.22C148.187 92.74 150.092 92.5 152.492 92.5ZM152.447 95.605C150.347 95.605 148.892 95.905 148.082 96.505C147.272 97.075 146.867 98.065 146.867 99.475C146.867 100.855 147.272 101.845 148.082 102.445C148.892 103.045 150.347 103.345 152.447 103.345C154.547 103.345 155.987 103.045 156.767 102.445C157.577 101.845 157.982 100.855 157.982 99.475C157.982 98.065 157.577 97.075 156.767 96.505C155.987 95.905 154.547 95.605 152.447 95.605ZM164.597 93.04L164.372 95.29L158.702 95.785L157.127 93.04L164.597 93.04ZM146.192 105.055L148.577 105.37C148.097 105.79 147.767 106.315 147.587 106.945C147.407 107.575 147.452 108.145 147.722 108.655C147.992 109.165 148.592 109.495 149.522 109.645L157.712 110.905C159.812 111.175 161.282 111.82 162.122 112.84C162.962 113.83 163.382 115.255 163.382 117.115C163.382 118.885 163.037 120.265 162.347 121.255C161.687 122.245 160.577 122.95 159.017 123.37C157.457 123.79 155.357 124 152.717 124C150.647 124 148.922 123.88 147.542 123.64C146.162 123.43 145.052 123.055 144.212 122.515C143.402 122.005 142.817 121.33 142.457 120.49C142.097 119.65 141.917 118.615 141.917 117.385C141.917 116.425 142.052 115.615 142.322 114.955C142.622 114.295 143.102 113.71 143.762 113.2C144.422 112.69 145.277 112.195 146.327 111.715L149.162 110.32L151.052 110.995L148.892 112.57C148.262 113.02 147.737 113.47 147.317 113.92C146.927 114.34 146.627 114.775 146.417 115.225C146.207 115.705 146.102 116.275 146.102 116.935C146.102 117.895 146.282 118.63 146.642 119.14C147.032 119.65 147.707 119.995 148.667 120.175C149.627 120.355 150.962 120.445 152.672 120.445C154.382 120.445 155.702 120.34 156.632 120.13C157.562 119.95 158.207 119.605 158.567 119.095C158.957 118.615 159.152 117.91 159.152 116.98C159.152 116.26 159.047 115.705 158.837 115.315C158.657 114.955 158.297 114.685 157.757 114.505C157.217 114.295 156.437 114.115 155.417 113.965L147.722 112.975C146.732 112.855 145.952 112.555 145.382 112.075C144.812 111.565 144.407 110.98 144.167 110.32C143.957 109.63 143.897 108.955 143.987 108.295C144.107 107.605 144.347 106.96 144.707 106.36C145.097 105.76 145.592 105.325 146.192 105.055ZM173.306 93.04L173.306 115L169.031 115L169.031 93.04L173.306 93.04ZM172.181 83.635C173.051 83.635 173.486 84.07 173.486 84.94L173.486 87.505C173.486 88.375 173.051 88.81 172.181 88.81L170.156 88.81C169.286 88.81 168.851 88.375 168.851 87.505L168.851 84.94C168.851 84.07 169.286 83.635 170.156 83.635L172.181 83.635ZM184.417 93.04L184.417 108.25C184.417 109.57 184.672 110.5 185.182 111.04C185.692 111.58 186.547 111.85 187.747 111.85C188.917 111.85 190.072 111.58 191.212 111.04C192.382 110.5 193.792 109.705 195.442 108.655L195.937 111.49C194.257 112.84 192.607 113.86 190.987 114.55C189.397 115.24 187.777 115.585 186.127 115.585C182.107 115.585 180.097 113.575 180.097 109.555L180.097 93.04L184.417 93.04ZM199.357 93.04L199.357 115L195.847 115L195.442 110.815L194.992 110.14L194.992 93.04L199.357 93.04ZM213.587 92.5C214.547 92.5 215.582 92.53 216.692 92.59C217.802 92.65 218.897 92.725 219.977 92.815C221.087 92.905 222.092 93.025 222.992 93.175L222.677 96.235C221.267 96.175 219.857 96.13 218.447 96.1C217.067 96.04 215.687 96.01 214.307 96.01C212.987 95.98 211.952 96.01 211.202 96.1C210.452 96.19 209.912 96.415 209.582 96.775C209.252 97.135 209.087 97.75 209.087 98.62C209.087 99.67 209.342 100.36 209.852 100.69C210.392 101.02 211.187 101.305 212.237 101.545L218.492 102.985C220.262 103.435 221.567 104.095 222.407 104.965C223.247 105.835 223.667 107.215 223.667 109.105C223.667 110.905 223.322 112.27 222.632 113.2C221.972 114.1 220.937 114.7 219.527 115C218.117 115.33 216.332 115.495 214.172 115.495C213.362 115.495 212.147 115.465 210.527 115.405C208.937 115.345 207.182 115.15 205.262 114.82L205.577 111.805C206.267 111.835 207.017 111.865 207.827 111.895C208.637 111.925 209.492 111.94 210.392 111.94C211.322 111.94 212.252 111.94 213.182 111.94C214.802 111.94 216.062 111.88 216.962 111.76C217.892 111.61 218.537 111.34 218.897 110.95C219.287 110.53 219.482 109.915 219.482 109.105C219.482 108.115 219.167 107.455 218.537 107.125C217.937 106.765 217.112 106.465 216.062 106.225L209.897 104.785C208.637 104.485 207.632 104.08 206.882 103.57C206.162 103.03 205.637 102.37 205.307 101.59C205.007 100.78 204.857 99.775 204.857 98.575C204.857 96.895 205.157 95.62 205.757 94.75C206.357 93.85 207.287 93.25 208.547 92.95C209.837 92.62 211.517 92.47 213.587 92.5ZM250.685 83.41C252.035 83.41 253.19 83.44 254.15 83.5C255.11 83.56 255.995 83.665 256.805 83.815C257.615 83.935 258.455 84.115 259.325 84.355L258.875 87.73C257.975 87.64 257.135 87.58 256.355 87.55C255.575 87.49 254.735 87.445 253.835 87.415C252.965 87.385 251.915 87.37 250.685 87.37C248.765 87.37 247.25 87.745 246.14 88.495C245.03 89.245 244.235 90.505 243.755 92.275C243.305 94.015 243.08 96.415 243.08 99.475C243.08 102.535 243.305 104.95 243.755 106.72C244.235 108.46 245.03 109.705 246.14 110.455C247.25 111.205 248.765 111.58 250.685 111.58C252.635 111.58 254.27 111.55 255.59 111.49C256.94 111.4 258.245 111.265 259.505 111.085L259.955 114.46C258.635 114.85 257.27 115.12 255.86 115.27C254.48 115.45 252.755 115.54 250.685 115.54C247.685 115.54 245.27 115.03 243.44 114.01C241.64 112.96 240.335 111.265 239.525 108.925C238.715 106.585 238.31 103.435 238.31 99.475C238.31 95.515 238.715 92.365 239.525 90.025C240.335 87.685 241.64 86.005 243.44 84.985C245.27 83.935 247.685 83.41 250.685 83.41ZM274.366 92.5C276.946 92.5 279.001 92.875 280.531 93.625C282.091 94.375 283.201 95.605 283.861 97.315C284.551 98.995 284.896 101.23 284.896 104.02C284.896 106.84 284.551 109.105 283.861 110.815C283.201 112.495 282.091 113.71 280.531 114.46C279.001 115.21 276.946 115.585 274.366 115.585C271.816 115.585 269.761 115.21 268.201 114.46C266.671 113.71 265.561 112.495 264.871 110.815C264.181 109.105 263.836 106.84 263.836 104.02C263.836 101.23 264.181 98.995 264.871 97.315C265.561 95.605 266.671 94.375 268.201 93.625C269.761 92.875 271.816 92.5 274.366 92.5ZM274.366 96.01C272.866 96.01 271.681 96.25 270.811 96.73C269.941 97.21 269.326 98.035 268.966 99.205C268.606 100.345 268.426 101.95 268.426 104.02C268.426 106.09 268.606 107.71 268.966 108.88C269.326 110.05 269.941 110.875 270.811 111.355C271.681 111.805 272.866 112.03 274.366 112.03C275.866 112.03 277.051 111.805 277.921 111.355C278.821 110.875 279.451 110.05 279.811 108.88C280.171 107.71 280.351 106.09 280.351 104.02C280.351 101.95 280.171 100.345 279.811 99.205C279.451 98.035 278.821 97.21 277.921 96.73C277.051 96.25 275.866 96.01 274.366 96.01ZM294.988 83.5L294.943 108.745C294.943 109.675 295.198 110.38 295.708 110.86C296.248 111.34 296.983 111.58 297.913 111.58L299.983 111.58L300.478 114.775C300.178 114.925 299.758 115.045 299.218 115.135C298.708 115.225 298.168 115.285 297.598 115.315C297.058 115.375 296.593 115.405 296.203 115.405C294.523 115.405 293.173 114.925 292.153 113.965C291.163 113.005 290.668 111.61 290.668 109.78L290.668 83.5L294.988 83.5ZM308.611 83.5L308.566 108.745C308.566 109.675 308.821 110.38 309.331 110.86C309.871 111.34 310.606 111.58 311.536 111.58L313.606 111.58L314.101 114.775C313.801 114.925 313.381 115.045 312.841 115.135C312.331 115.225 311.791 115.285 311.221 115.315C310.681 115.375 310.216 115.405 309.826 115.405C308.146 115.405 306.796 114.925 305.776 113.965C304.786 113.005 304.291 111.61 304.291 109.78L304.291 83.5L308.611 83.5ZM327.139 92.5C330.529 92.5 332.974 93.115 334.474 94.345C336.004 95.545 336.769 97.33 336.769 99.7C336.799 101.68 336.364 103.21 335.464 104.29C334.594 105.37 333.169 105.91 331.189 105.91L318.499 105.91L318.499 102.805L330.064 102.805C331.054 102.805 331.699 102.49 331.999 101.86C332.299 101.23 332.449 100.51 332.449 99.7C332.419 98.35 332.014 97.39 331.234 96.82C330.484 96.25 329.179 95.965 327.319 95.965C325.789 95.965 324.589 96.19 323.719 96.64C322.849 97.09 322.234 97.87 321.874 98.98C321.544 100.09 321.379 101.65 321.379 103.66C321.379 105.91 321.589 107.635 322.009 108.835C322.459 110.005 323.164 110.815 324.124 111.265C325.114 111.715 326.419 111.94 328.039 111.94C329.179 111.94 330.454 111.895 331.864 111.805C333.304 111.685 334.609 111.55 335.779 111.4L336.229 114.235C335.509 114.535 334.639 114.79 333.619 115C332.599 115.18 331.549 115.315 330.469 115.405C329.389 115.495 328.399 115.54 327.499 115.54C324.919 115.54 322.849 115.15 321.289 114.37C319.729 113.59 318.589 112.36 317.869 110.68C317.149 108.97 316.789 106.735 316.789 103.975C316.789 101.095 317.149 98.815 317.869 97.135C318.589 95.455 319.714 94.27 321.244 93.58C322.774 92.86 324.739 92.5 327.139 92.5ZM351.169 92.5C353.539 92.5 355.414 92.74 356.794 93.22C358.204 93.67 359.209 94.42 359.809 95.47C360.409 96.49 360.709 97.825 360.709 99.475C360.709 101.065 360.409 102.385 359.809 103.435C359.209 104.455 358.204 105.22 356.794 105.73C355.384 106.21 353.494 106.45 351.124 106.45C348.724 106.45 346.819 106.21 345.409 105.73C344.029 105.22 343.039 104.455 342.439 103.435C341.839 102.415 341.539 101.11 341.539 99.52C341.539 97.84 341.839 96.49 342.439 95.47C343.039 94.42 344.044 93.67 345.454 93.22C346.864 92.74 348.769 92.5 351.169 92.5ZM351.124 95.605C349.024 95.605 347.569 95.905 346.759 96.505C345.949 97.075 345.544 98.065 345.544 99.475C345.544 100.855 345.949 101.845 346.759 102.445C347.569 103.045 349.024 103.345 351.124 103.345C353.224 103.345 354.664 103.045 355.444 102.445C356.254 101.845 356.659 100.855 356.659 99.475C356.659 98.065 356.254 97.075 355.444 96.505C354.664 95.905 353.224 95.605 351.124 95.605ZM363.274 93.04L363.049 95.29L357.379 95.785L355.804 93.04L363.274 93.04ZM344.869 105.055L347.254 105.37C346.774 105.79 346.444 106.315 346.264 106.945C346.084 107.575 346.129 108.145 346.399 108.655C346.669 109.165 347.269 109.495 348.199 109.645L356.389 110.905C358.489 111.175 359.959 111.82 360.799 112.84C361.639 113.83 362.059 115.255 362.059 117.115C362.059 118.885 361.714 120.265 361.024 121.255C360.364 122.245 359.254 122.95 357.694 123.37C356.134 123.79 354.034 124 351.394 124C349.324 124 347.599 123.88 346.219 123.64C344.839 123.43 343.729 123.055 342.889 122.515C342.079 122.005 341.494 121.33 341.134 120.49C340.774 119.65 340.594 118.615 340.594 117.385C340.594 116.425 340.729 115.615 340.999 114.955C341.299 114.295 341.779 113.71 342.439 113.2C343.099 112.69 343.954 112.195 345.004 111.715L347.839 110.32L349.729 110.995L347.569 112.57C346.939 113.02 346.414 113.47 345.994 113.92C345.604 114.34 345.304 114.775 345.094 115.225C344.884 115.705 344.779 116.275 344.779 116.935C344.779 117.895 344.959 118.63 345.319 119.14C345.709 119.65 346.384 119.995 347.344 120.175C348.304 120.355 349.639 120.445 351.349 120.445C353.059 120.445 354.379 120.34 355.309 120.13C356.239 119.95 356.884 119.605 357.244 119.095C357.634 118.615 357.829 117.91 357.829 116.98C357.829 116.26 357.724 115.705 357.514 115.315C357.334 114.955 356.974 114.685 356.434 114.505C355.894 114.295 355.114 114.115 354.094 113.965L346.399 112.975C345.409 112.855 344.629 112.555 344.059 112.075C343.489 111.565 343.084 110.98 342.844 110.32C342.634 109.63 342.574 108.955 342.664 108.295C342.784 107.605 343.024 106.96 343.384 106.36C343.774 105.76 344.269 105.325 344.869 105.055ZM376.622 92.5C380.012 92.5 382.457 93.115 383.957 94.345C385.487 95.545 386.252 97.33 386.252 99.7C386.282 101.68 385.847 103.21 384.947 104.29C384.077 105.37 382.652 105.91 380.672 105.91L367.982 105.91L367.982 102.805L379.547 102.805C380.537 102.805 381.182 102.49 381.482 101.86C381.782 101.23 381.932 100.51 381.932 99.7C381.902 98.35 381.497 97.39 380.717 96.82C379.967 96.25 378.662 95.965 376.802 95.965C375.272 95.965 374.072 96.19 373.202 96.64C372.332 97.09 371.717 97.87 371.357 98.98C371.027 100.09 370.862 101.65 370.862 103.66C370.862 105.91 371.072 107.635 371.492 108.835C371.942 110.005 372.647 110.815 373.607 111.265C374.597 111.715 375.902 111.94 377.522 111.94C378.662 111.94 379.937 111.895 381.347 111.805C382.787 111.685 384.092 111.55 385.262 111.4L385.712 114.235C384.992 114.535 384.122 114.79 383.102 115C382.082 115.18 381.032 115.315 379.952 115.405C378.872 115.495 377.882 115.54 376.982 115.54C374.402 115.54 372.332 115.15 370.772 114.37C369.212 113.59 368.072 112.36 367.352 110.68C366.632 108.97 366.272 106.735 366.272 103.975C366.272 101.095 366.632 98.815 367.352 97.135C368.072 95.455 369.197 94.27 370.727 93.58C372.257 92.86 374.222 92.5 376.622 92.5Z" fill="black"/>
<defs>
<clipPath id="clip0_2_19">
<rect width="100" height="67.9688" fill="white" transform="translate(254.619 90.4257) rotate(-175)"/>
</clipPath>
</defs>
</svg>
