<?xml version="1.0" standalone="no"?>
<!DOCTYPE svg PUBLIC "-//W3C//DTD SVG 20010904//EN" "http://www.w3.org/TR/2001/REC-SVG-20010904/DTD/svg10.dtd">
<svg version="1.0" xmlns="http://www.w3.org/2000/svg"
	width="203.000000pt" height="210.000000pt" viewBox="0 0 203.000000 210.000000"
	preserveAspectRatio="xMidYMid meet">

	<g transform="translate(0.000000,210.000000) scale(0.100000,-0.100000)"
		fill="#fff" stroke="none">
		<path
			d="M267 2068 c-13 -18 -79 -126 -146 -239 l-121 -207 0 -706 c0 -687 0
-706 19 -716 11 -5 29 -10 40 -10 19 0 21 -6 21 -78 0 -47 5 -83 12 -90 17
-17 1829 -17 1846 0 7 7 12 43 12 90 l0 78 28 0 c15 0 33 5 40 12 9 9 12 182
12 719 l0 706 -135 229 c-74 125 -141 231 -148 236 -6 4 -337 8 -734 8 l-722
0 -24 -32z m1423 -143 l0 -85 -210 0 -210 0 0 34 c0 62 -15 66 -263 66 -131 0
-226 -4 -238 -10 -11 -7 -21 -26 -25 -50 l-7 -40 -193 0 -194 0 0 85 0 85 670
0 670 0 0 -85z m103 -57 c17 -27 17 -28 -3 -28 -16 0 -20 7 -20 32 0 17 1 29
3 27 2 -2 11 -16 20 -31z m-1533 -3 c0 -16 -6 -25 -15 -25 -18 0 -18 5 -5 31
14 26 20 24 20 -6z m930 -110 l0 -95 -180 0 -180 0 0 95 0 95 180 0 180 0 0
-95z m-930 -56 l0 -51 -67 7 c-38 4 -69 8 -70 9 -1 1 9 21 23 44 24 39 28 42
70 42 l44 0 0 -51z m480 6 l0 -45 -195 0 -195 0 0 45 0 45 195 0 195 0 0 -45z
m950 0 l0 -45 -210 0 -210 0 0 45 0 45 210 0 210 0 0 -45z m195 5 c14 -22 25
-42 25 -45 0 -3 -31 -5 -70 -5 l-70 0 0 45 0 45 45 0 c41 0 47 -3 70 -40z
m-1625 -509 l0 -368 -85 -188 c-47 -104 -87 -191 -90 -193 -3 -3 -5 247 -5
556 l0 562 90 0 90 0 0 -369z m602 305 c4 -62 6 -67 56 -120 52 -55 52 -55 52
-121 l0 -66 -164 -78 c-99 -47 -168 -87 -175 -99 -6 -11 -11 -50 -11 -86 l0
-66 -135 0 -135 0 0 350 0 350 254 0 254 0 4 -64z m208 16 c0 -41 -5 -53 -33
-80 l-33 -32 -27 28 c-22 23 -27 37 -27 80 l0 52 60 0 60 0 0 -48z m620 -302
l0 -350 -150 0 -150 0 0 73 c0 39 -4 77 -8 84 -13 20 -200 105 -225 101 -17
-2 -22 -10 -22 -33 0 -27 6 -33 62 -60 34 -16 62 -32 62 -35 1 -4 -64 -41
-144 -84 l-145 -78 0 -184 c0 -101 -3 -184 -7 -184 -5 0 -63 28 -130 63 l-123
62 1 195 0 195 156 75 c86 41 162 81 170 88 9 9 13 41 13 99 l0 86 50 53 c50
52 50 53 50 118 l0 66 270 0 270 0 0 -350z m260 -212 c0 -309 -2 -559 -4 -557
-2 2 -43 91 -90 197 l-86 193 0 364 0 365 90 0 90 0 0 -562z m-640 -247 c0
-115 -3 -161 -12 -168 -7 -6 -66 -38 -130 -72 l-118 -63 0 166 0 165 123 65
c67 36 125 66 130 66 4 0 7 -71 7 -159z m-690 -73 c0 -57 3 -113 6 -126 5 -17
50 -44 198 -119 l192 -96 185 99 184 99 3 123 3 123 157 -3 157 -3 112 -250
c62 -137 113 -253 113 -257 0 -5 -412 -8 -915 -8 -503 0 -915 2 -915 4 0 2 43
100 96 218 53 117 105 232 115 256 l18 42 146 0 145 0 0 -102z m1250 -548 l0
-50 -850 0 -850 0 0 50 0 50 850 0 850 0 0 -50z" />
	</g>
</svg>