<?xml version="1.0" standalone="no"?>
<!DOCTYPE svg PUBLIC "-//W3C//DTD SVG 20010904//EN"
 "http://www.w3.org/TR/2001/REC-SVG-20010904/DTD/svg10.dtd">
<svg version="1.0" xmlns="http://www.w3.org/2000/svg"
 width="189.000000pt" height="221.000000pt" viewBox="0 0 189.000000 221.000000"
 preserveAspectRatio="xMidYMid meet">

<g transform="translate(0.000000,221.000000) scale(0.100000,-0.100000)"
fill="#fff" stroke="none">
<path d="M493 2194 c-12 -3 -24 -13 -27 -22 -38 -139 11 -301 121 -402 65 -59
142 -91 240 -98 71 -4 71 -5 62 -29 -5 -13 -9 -38 -9 -54 0 -16 -2 -29 -4 -29
-3 0 -45 14 -94 30 -212 71 -465 17 -612 -130 -95 -95 -141 -204 -160 -379
-21 -191 16 -411 99 -586 84 -176 201 -299 383 -404 160 -91 226 -105 352 -72
98 26 104 26 202 1 105 -28 169 -20 274 30 225 109 394 280 479 485 61 147 76
229 76 440 0 182 -1 193 -28 270 -85 244 -279 375 -555 375 -78 0 -109 -5
-184 -30 -49 -16 -93 -30 -98 -30 -22 0 16 87 56 126 48 48 96 65 175 63 43
-2 55 1 71 20 39 49 9 95 -67 107 -58 8 -165 -16 -216 -50 l-36 -24 -11 63
c-21 131 -110 248 -229 303 -47 21 -75 26 -148 28 -49 1 -100 0 -112 -2z m213
-148 c82 -38 154 -144 154 -228 0 -47 -152 0 -205 64 -36 43 -61 96 -70 146
l-7 42 39 0 c21 0 61 -11 89 -24z m-54 -555 c31 -6 100 -26 152 -45 121 -46
160 -46 279 -1 108 41 196 59 238 50 l29 -7 -21 -37 c-13 -25 -33 -42 -56 -50
-19 -7 -37 -19 -40 -27 -4 -10 -25 -14 -79 -14 l-73 0 -42 -72 c-23 -40 -50
-87 -60 -103 l-18 -30 51 -87 50 -87 -23 -41 c-16 -29 -32 -43 -52 -47 -15 -3
-36 -16 -46 -29 -16 -21 -27 -24 -84 -24 -39 0 -69 -5 -75 -12 -17 -21 -112
-189 -112 -198 0 -5 21 -44 46 -87 l46 -78 -22 -42 c-12 -23 -38 -51 -56 -62
-59 -35 -57 -112 2 -141 17 -8 41 -32 53 -53 l22 -37 -24 0 c-78 0 -243 97
-358 210 -158 156 -230 331 -245 593 -10 182 31 328 117 422 78 85 171 125
334 144 6 0 36 -3 67 -8z m898 -63 c30 -18 65 -48 77 -67 l23 -34 -32 -56
c-47 -84 -43 -81 -124 -81 l-73 0 -23 43 c-32 56 -31 139 1 191 19 31 28 36
60 36 24 0 56 -11 91 -32z m-222 -70 c7 -7 12 -21 12 -33 0 -44 -44 -59 -75
-25 -17 18 -17 21 -1 45 18 27 45 32 64 13z m-95 -82 c3 -8 21 -20 40 -27 23
-8 41 -25 57 -54 l23 -42 -37 -66 -38 -67 -76 0 -77 0 -38 66 c-21 36 -37 68
-35 72 2 4 19 35 38 70 l35 62 51 0 c35 0 54 -4 57 -14z m490 -68 c9 -29 19
-73 22 -98 3 -25 8 -57 10 -72 4 -24 1 -28 -18 -28 -17 0 -31 16 -59 66 -21
36 -38 71 -38 76 0 14 53 108 61 108 4 0 14 -24 22 -52z m-111 -163 l37 -65
-26 -45 c-13 -25 -30 -45 -38 -45 -7 0 -24 -9 -38 -20 -18 -14 -40 -20 -79
-20 l-53 0 -36 66 -36 66 36 64 36 63 80 0 80 0 37 -64z m143 -162 c-9 -90
-34 -203 -46 -203 -5 0 -17 17 -28 38 -14 28 -17 42 -9 56 6 10 8 35 4 55 -8
50 29 121 63 121 23 0 23 -1 16 -67z m-437 -14 l36 -65 -38 -62 -37 -62 -79 0
-78 0 -20 34 c-25 42 -24 145 2 194 l17 33 81 -3 80 -3 36 -66z m-284 -25 c30
-30 13 -74 -29 -74 -42 0 -59 44 -29 74 8 9 22 16 29 16 7 0 21 -7 29 -16z
m604 -31 c4 -38 -25 -60 -57 -44 -24 14 -30 31 -20 59 7 19 15 23 41 20 29 -3
33 -7 36 -35z m-664 -74 c19 -11 46 -40 60 -65 l25 -44 -37 -65 -37 -64 -80
-1 -80 0 -37 66 -38 66 38 64 37 64 57 0 c40 0 67 -6 92 -21z m571 10 c4 -5
17 -14 30 -19 12 -5 34 -29 48 -54 l26 -46 -37 -65 -37 -64 -48 -1 c-34 0 -57
6 -74 20 -14 11 -33 20 -42 20 -9 0 -28 20 -43 45 l-27 44 37 66 37 65 62 0
c34 0 65 -5 68 -11z m-244 -197 c18 -31 24 -54 19 -67 -4 -11 -3 -34 2 -52 7
-27 4 -39 -17 -73 l-25 -40 -75 0 c-84 0 -79 -4 -136 105 l-21 40 39 67 38 68
75 0 75 0 26 -48z m137 -86 c5 -23 -16 -46 -42 -46 -46 0 -62 48 -24 74 19 13
25 14 43 2 11 -7 21 -21 23 -30z m-416 -108 l36 -63 -30 -55 c-17 -30 -34 -58
-37 -61 -3 -4 -41 -9 -84 -13 l-77 -6 -20 33 c-15 24 -19 42 -14 74 3 22 1 49
-4 60 -8 13 -5 27 11 55 l21 38 81 0 81 0 36 -62z m558 54 c0 -18 -183 -182
-203 -182 -3 0 -14 15 -25 34 l-20 34 25 41 c18 30 31 41 49 41 13 0 32 9 42
19 13 15 31 20 75 20 31 1 57 -3 57 -7z m-830 -92 c24 -24 24 -30 7 -54 -9
-12 -23 -17 -42 -14 -25 2 -31 8 -33 33 -3 19 2 33 14 42 24 17 30 17 54 -7z
m549 -84 c12 -18 21 -36 21 -38 0 -3 -32 -20 -71 -38 -61 -28 -78 -32 -122
-27 -28 4 -54 10 -57 14 -4 5 8 34 27 66 l34 57 74 0 c73 0 74 0 94 -34z"/>
</g>
</svg>
