<?xml version="1.0" standalone="no"?>
<!DOCTYPE svg PUBLIC "-//W3C//DTD SVG 20010904//EN"
 "http://www.w3.org/TR/2001/REC-SVG-20010904/DTD/svg10.dtd">
<svg version="1.0" xmlns="http://www.w3.org/2000/svg"
 width="236.000000pt" height="194.000000pt" viewBox="0 0 236.000000 194.000000"
 preserveAspectRatio="xMidYMid meet">

<g transform="translate(0.000000,194.000000) scale(0.100000,-0.100000)"
fill="#fff" stroke="none">
<path d="M1620 1922 l-35 -17 4 -69 3 -68 -57 -54 -58 -55 -74 3 -75 3 -15
-38 -16 -38 39 -32 c75 -62 71 -55 67 -142 l-5 -80 -54 -39 c-30 -22 -54 -42
-54 -44 0 -3 5 -22 12 -44 l12 -40 75 4 76 3 53 -55 53 -55 -6 -55 c-3 -30 -8
-63 -11 -72 -4 -12 7 -23 37 -38 l42 -22 56 59 56 60 71 -4 72 -5 43 -59 c45
-62 43 -62 108 -38 22 9 23 12 16 87 l-6 77 53 52 53 51 50 -8 c88 -15 103
-13 120 20 23 44 20 52 -39 100 l-54 45 1 74 2 75 62 48 61 48 -16 41 -16 41
-75 -4 -76 -3 -52 56 -53 55 10 60 c14 83 14 81 -30 104 l-40 20 -33 -36 c-17
-21 -38 -45 -45 -55 -11 -15 -25 -18 -94 -15 l-82 3 -44 56 c-24 32 -46 57
-50 57 -4 -1 -23 -9 -42 -18z m325 -241 c62 -27 111 -76 145 -143 54 -109 38
-243 -41 -332 -22 -25 -65 -57 -97 -73 -77 -38 -182 -39 -257 -3 -260 125
-219 499 62 570 51 12 137 4 188 -19z"/>
<path d="M473 1655 c-33 -14 -33 -15 -33 -82 l0 -68 -68 -51 -69 -50 -66 22
-66 22 -30 -40 -30 -41 31 -44 c18 -24 37 -48 43 -53 8 -7 4 -32 -16 -92 l-27
-83 -64 -22 -63 -22 0 -52 0 -53 63 -19 c35 -11 65 -24 67 -31 2 -6 13 -43 26
-83 l22 -72 -42 -55 -43 -56 32 -40 c18 -23 37 -39 44 -36 58 25 119 39 130
31 7 -6 38 -28 70 -49 l56 -39 0 -72 0 -72 45 -13 c53 -15 60 -11 102 56 l28
43 88 0 88 0 36 -55 c38 -57 46 -60 103 -41 l35 12 0 69 0 69 68 50 69 50 56
-18 c32 -10 62 -19 67 -21 6 -2 23 15 39 37 l29 41 -24 31 c-63 87 -60 73 -31
164 l27 83 55 15 c30 9 61 18 68 20 7 3 12 23 12 54 l0 50 -68 20 -67 20 -24
73 c-12 40 -25 78 -27 84 -3 6 14 33 36 61 22 28 40 55 40 60 0 4 -14 25 -30
45 l-31 37 -62 -24 -63 -23 -45 35 c-24 19 -57 42 -72 50 -27 13 -28 18 -27
76 1 34 1 67 1 73 -1 10 -64 34 -88 34 -6 0 -27 -25 -47 -55 l-36 -55 -88 0
-87 0 -38 55 c-40 58 -52 63 -104 40z m400 -292 c306 -144 306 -581 0 -726
-63 -30 -76 -32 -173 -32 -99 0 -110 2 -172 33 -84 41 -167 128 -199 209 -19
46 -23 77 -23 153 0 120 24 186 96 265 92 101 176 136 313 132 77 -2 100 -7
158 -34z"/>
<path d="M1374 758 c-20 -9 -21 -16 -16 -73 4 -60 3 -65 -32 -111 -20 -26 -39
-58 -42 -70 -4 -17 -21 -29 -60 -44 -30 -11 -59 -20 -64 -20 -9 0 -11 -5 -14
-42 -1 -6 26 -25 58 -42 49 -25 62 -38 72 -67 7 -20 24 -54 38 -75 25 -38 25
-40 11 -99 -14 -64 -13 -70 14 -84 14 -8 30 -1 71 28 49 35 57 38 89 29 19 -6
58 -8 85 -5 48 4 52 3 97 -40 42 -39 50 -43 69 -33 19 10 21 19 19 81 -2 62 1
73 23 97 14 15 35 45 45 66 17 33 29 42 79 60 50 18 59 25 62 48 3 24 -3 30
-54 55 -48 23 -60 34 -70 64 -7 20 -24 55 -39 78 -26 38 -27 44 -16 85 16 63
14 84 -8 95 -15 8 -28 3 -66 -23 -47 -34 -48 -34 -139 -30 -86 3 -93 5 -130
36 -54 45 -58 47 -82 36z m274 -202 c65 -34 102 -96 102 -172 0 -121 -107
-204 -235 -180 -41 8 -99 55 -121 99 -20 38 -21 125 -1 162 16 32 59 75 92 93
29 16 131 15 163 -2z"/>
</g>
</svg>
