<?xml version="1.0" standalone="no"?>
<!DOCTYPE svg PUBLIC "-//W3C//DTD SVG 20010904//EN"
 "http://www.w3.org/TR/2001/REC-SVG-20010904/DTD/svg10.dtd">
<svg version="1.0" xmlns="http://www.w3.org/2000/svg"
 width="220.000000pt" height="219.000000pt" viewBox="0 0 220.000000 219.000000"
 preserveAspectRatio="xMidYMid meet">

<g transform="translate(0.000000,219.000000) scale(0.100000,-0.100000)"
fill="#fff" stroke="none">
<path d="M970 2184 c-14 -2 -52 -9 -84 -15 -208 -38 -428 -159 -582 -322 -401
-421 -402 -1074 -2 -1502 422 -452 1135 -458 1577 -14 288 291 387 734 250
1125 -96 276 -286 488 -554 620 -153 75 -273 104 -445 109 -74 2 -146 2 -160
-1z m-70 -221 c-39 -43 -97 -116 -128 -163 -30 -47 -59 -89 -63 -94 -6 -7
-265 49 -278 61 -10 8 59 68 137 120 93 62 188 105 295 133 115 30 117 28 37
-57z m310 -156 c-29 -117 -54 -214 -56 -216 -6 -7 -314 73 -314 82 0 17 103
157 154 210 28 29 77 71 109 92 59 39 149 70 156 53 1 -5 -21 -105 -49 -221z
m240 146 c48 -54 92 -143 114 -228 17 -69 39 -235 32 -242 -8 -8 -316 70 -316
80 0 8 98 403 105 425 8 21 22 13 65 -35z m311 -174 c71 -69 141 -165 186
-254 36 -70 66 -146 60 -151 -3 -4 -261 61 -274 69 -5 4 -13 48 -16 99 -5 78
-27 183 -63 307 l-7 25 29 -21 c16 -12 54 -45 85 -74z m-1099 -148 c4 -4 -10
-47 -31 -97 -22 -49 -51 -129 -66 -177 -15 -48 -29 -87 -31 -87 -16 0 -341 84
-347 90 -13 12 50 163 102 242 76 117 58 111 223 71 79 -20 146 -39 150 -42z
m303 -72 c117 -29 165 -46 165 -56 0 -12 -74 -320 -85 -349 -2 -8 -61 2 -187
33 -101 25 -187 49 -192 54 -4 4 2 38 14 76 25 77 110 283 116 283 2 0 79 -19
169 -41z m438 -110 c67 -16 139 -35 161 -40 l39 -10 -7 -87 c-8 -109 -35 -274
-46 -286 -8 -8 -347 70 -372 85 -7 5 3 65 32 180 24 96 45 177 47 182 6 11 14
10 146 -24z m482 -120 c72 -17 136 -37 143 -44 26 -24 28 -333 3 -374 -13 -21
-363 67 -356 89 12 39 36 204 42 283 5 74 9 87 22 83 9 -3 75 -19 146 -37z
m-1368 -133 c1 -1 -6 -49 -16 -106 -11 -58 -22 -146 -26 -196 l-7 -91 -141 34
c-78 19 -148 40 -154 46 -20 20 -36 164 -29 267 10 155 -11 145 194 93 97 -24
178 -45 179 -47z m500 -133 c4 -11 -81 -361 -90 -369 -5 -6 -307 68 -326 80
-10 7 -12 26 -7 90 8 88 21 183 37 256 l10 47 186 -46 c103 -26 188 -52 190
-58z m336 -74 c105 -26 177 -48 177 -55 0 -20 -66 -204 -100 -277 -17 -37 -37
-70 -45 -74 -12 -4 -304 61 -326 73 -6 3 69 323 86 373 3 7 11 11 18 9 6 -3
92 -25 190 -49z m485 -121 c172 -42 173 -43 167 -68 -17 -71 -136 -283 -179
-319 -13 -11 -39 -8 -165 24 l-149 37 35 75 c19 41 51 124 70 184 20 60 39
109 42 109 3 0 84 -19 179 -42z m-1397 -132 c25 -5 27 -10 34 -83 8 -97 30
-204 55 -277 10 -31 15 -56 9 -56 -17 0 -171 154 -215 216 -42 59 -115 195
-128 240 -7 22 -7 22 106 -6 62 -15 125 -31 139 -34z m325 -82 c118 -30 145
-40 141 -53 -2 -9 -26 -105 -53 -213 -26 -109 -53 -198 -58 -198 -5 0 -26 18
-47 40 -72 76 -132 234 -145 388 -5 52 -4 72 5 72 6 0 77 -16 157 -36z m439
-110 c167 -42 160 -28 68 -151 -93 -124 -204 -210 -301 -231 -23 -6 -42 -8
-42 -6 0 2 23 98 51 214 37 152 55 210 65 210 8 0 79 -16 159 -36z m382 -94
c134 -31 163 -40 163 -49 0 -4 -35 -34 -77 -65 -120 -90 -232 -141 -376 -171
-38 -8 -71 -15 -74 -15 -3 0 31 38 75 85 44 46 101 118 128 160 26 41 53 75
60 75 7 0 53 -9 101 -20z"/>
</g>
</svg>
