<?xml version="1.0" standalone="no"?>
<!DOCTYPE svg PUBLIC "-//W3C//DTD SVG 20010904//EN"
 "http://www.w3.org/TR/2001/REC-SVG-20010904/DTD/svg10.dtd">
<svg version="1.0" xmlns="http://www.w3.org/2000/svg"
 width="224.000000pt" height="180.000000pt" viewBox="0 0 224.000000 180.000000"
 preserveAspectRatio="xMidYMid meet">

<g transform="translate(0.000000,180.000000) scale(0.100000,-0.100000)"
fill="#fff" stroke="none">
<path d="M331 1762 c-26 -25 -42 -83 -175 -620 -80 -326 -146 -604 -146 -617
0 -13 10 -36 23 -50 21 -24 98 -46 897 -246 481 -120 888 -218 903 -219 18 0
39 10 56 28 25 24 42 87 174 614 81 324 147 601 147 617 0 52 -40 87 -122 106
-40 10 -78 21 -85 24 -8 4 7 28 42 71 30 35 55 67 55 72 0 9 -88 83 -100 83
-5 0 -30 -25 -56 -55 -25 -30 -62 -72 -80 -92 l-34 -38 -706 175 c-389 96
-720 175 -736 175 -19 0 -39 -10 -57 -28z m182 -202 c39 -44 38 -110 -2 -151
-59 -59 -171 -26 -187 56 -20 107 115 176 189 95z m690 -103 l528 -132 -134
-156 c-113 -131 -143 -173 -188 -264 -108 -218 -219 -281 -339 -194 l-43 31
58 24 c136 55 205 120 212 201 4 39 0 55 -19 83 -68 100 -189 115 -278 33 -80
-72 -109 -154 -86 -243 16 -62 12 -66 -75 -56 -67 6 -91 17 -131 54 -48 44
-82 1 -37 -47 41 -44 96 -61 198 -61 l93 0 50 -45 c31 -28 70 -51 104 -62 51
-16 57 -16 108 1 61 19 137 85 194 169 17 26 53 62 79 80 64 43 113 93 265
269 l127 146 83 -20 c46 -12 84 -22 86 -23 1 -1 -59 -248 -134 -547 l-136
-545 -701 175 c-386 96 -703 176 -705 177 -2 2 218 891 259 1048 5 20 15 37
22 37 7 0 250 -60 540 -133z m-868 -380 c86 -22 90 -24 93 -53 2 -16 -3 -37
-10 -46 -14 -19 -4 -20 -170 23 -40 10 -46 25 -32 77 8 27 8 27 119 -1z m845
-12 c39 -20 60 -53 60 -92 0 -59 -112 -145 -218 -168 -30 -6 -33 -4 -47 29
-19 45 -19 77 0 124 28 66 96 122 148 122 15 0 41 -7 57 -15z m-897 -176 c97
-25 109 -32 101 -68 -14 -56 -10 -56 -186 -10 -41 10 -46 26 -28 73 12 31 11
31 113 5z m-38 -193 l90 -23 -2 -32 c-2 -58 -13 -61 -112 -36 -112 28 -114 30
-105 68 12 56 5 55 129 23z"/>
<path d="M2095 1743 c-19 -21 -35 -41 -35 -44 0 -3 23 -25 52 -49 l51 -44 34
39 c56 65 38 135 -36 135 -24 0 -40 -9 -66 -37z"/>
</g>
</svg>
