<?xml version="1.0" standalone="no"?>
<!DOCTYPE svg PUBLIC "-//W3C//DTD SVG 20010904//EN"
 "http://www.w3.org/TR/2001/REC-SVG-20010904/DTD/svg10.dtd">
<svg version="1.0" xmlns="http://www.w3.org/2000/svg"
 width="221.000000pt" height="152.000000pt" viewBox="0 0 221.000000 152.000000"
 preserveAspectRatio="xMidYMid meet">

<g transform="translate(0.000000,152.000000) scale(0.100000,-0.100000)"
fill="#fff" stroke="none">
<path d="M1036 1509 c-162 -16 -328 -66 -436 -129 -25 -14 -76 -34 -115 -43
-108 -26 -246 -98 -313 -165 -51 -50 -61 -66 -80 -132 -50 -173 -99 -471 -88
-543 8 -54 53 -124 98 -154 20 -13 121 -44 254 -77 293 -74 300 -72 369 102
39 96 56 113 104 97 30 -9 36 -38 36 -162 l0 -113 35 -34 c32 -32 50 -39 240
-86 113 -29 232 -56 265 -61 137 -20 292 36 399 143 54 55 66 75 99 162 30 80
47 109 92 158 114 123 194 317 202 493 3 58 1 117 -6 141 -42 154 -222 267
-571 358 -178 46 -409 64 -584 45z m489 -99 c118 -25 321 -91 385 -123 30 -16
55 -39 74 -70 33 -54 29 -68 -11 -39 -139 98 -427 172 -666 172 -151 0 -227
-12 -330 -52 l-81 -31 -117 28 c-65 16 -116 32 -113 36 8 13 169 67 249 82
125 25 129 25 325 22 143 -2 208 -8 285 -25z m47 -160 c188 -39 340 -104 406
-173 l34 -35 -21 -46 c-11 -25 -24 -46 -29 -46 -4 0 -21 14 -37 30 -36 38 -54
43 -527 161 -222 55 -372 97 -364 101 8 4 49 15 92 23 105 20 316 13 446 -15z
m-399 -130 c723 -181 677 -169 677 -178 0 -4 -20 -19 -43 -34 -63 -40 -84 -65
-71 -86 19 -29 38 -25 107 23 l67 45 6 -25 c4 -14 4 -79 2 -143 -7 -175 -74
-407 -142 -497 -37 -48 -129 -110 -194 -129 l-22 -7 19 33 c45 77 116 370 128
528 7 90 -5 130 -46 159 -15 10 -308 88 -703 187 -373 93 -674 172 -670 176
31 30 203 97 250 98 18 0 303 -68 635 -150z m946 -29 c35 -106 -17 -336 -108
-476 l-33 -50 7 45 c4 25 9 91 10 147 3 88 7 108 29 145 40 68 54 109 62 177
7 65 14 68 33 12z m-1202 -161 c444 -110 693 -176 706 -188 17 -15 19 -26 14
-82 -14 -171 -99 -490 -139 -527 -62 -56 -91 -56 -338 7 -143 36 -199 54 -211
69 -14 17 -16 39 -12 128 4 96 2 112 -16 140 -29 46 -65 66 -117 66 -66 0 -93
-25 -137 -129 -49 -117 -50 -119 -79 -122 -38 -5 -417 94 -447 116 -44 33 -66
80 -64 142 1 71 38 288 69 409 25 100 45 141 69 141 9 0 324 -77 702 -170z"/>
<path d="M1035 818 c-2 -7 -17 -65 -33 -129 l-29 -116 27 -73 c23 -63 32 -75
55 -82 32 -8 57 7 117 69 32 33 41 53 67 158 16 66 27 123 23 127 -4 4 -20 8
-36 10 l-29 3 -32 -127 c-27 -106 -37 -131 -61 -152 l-29 -25 -16 35 c-16 34
-15 41 16 165 18 71 30 131 26 133 -23 13 -62 15 -66 4z"/>
<path d="M1301 573 c-24 -98 -46 -183 -48 -190 -4 -11 54 -34 68 -27 3 2 14
39 24 84 15 64 22 79 34 76 9 -3 28 -8 44 -12 32 -7 32 -8 8 -101 l-19 -73 32
-9 c17 -4 34 -7 37 -5 3 2 14 39 24 83 14 64 16 83 6 95 -10 12 -9 17 7 25 37
20 55 146 25 174 -15 13 -161 57 -190 57 -5 0 -28 -80 -52 -177z m188 92 c2
-3 -1 -30 -8 -61 l-13 -56 -36 7 c-21 4 -40 10 -45 14 -4 4 -2 31 5 60 l12 53
40 -6 c22 -4 42 -9 45 -11z"/>
</g>
</svg>
